<svg width="14" height="19" viewBox="0 0 14 19" fill="none" xmlns="http://www.w3.org/2000/svg">
<path d="M7.95312 17.8984C7.8125 18.1445 7.56641 18.25 7.25 18.25C6.96875 18.25 6.72266 18.1445 6.54688 17.8984L4.19141 14.5234C3.03125 12.8359 2.25781 11.7109 1.87109 11.1133C1.34375 10.2695 0.992188 9.56641 0.78125 9.00391C0.605469 8.44141 0.5 7.77344 0.5 7C0.5 5.80469 0.816406 4.67969 1.41406 3.625C2.04688 2.60547 2.85547 1.79688 3.875 1.16406C4.92969 0.566406 6.05469 0.25 7.25 0.25C8.48047 0.25 9.60547 0.566406 10.625 1.16406C11.6797 1.79688 12.4883 2.60547 13.0859 3.625C13.7188 4.67969 14 5.80469 14 7C14 7.77344 13.9297 8.44141 13.7188 9.00391C13.543 9.56641 13.1914 10.2695 12.6289 11.1133C12.2773 11.7109 11.5039 12.8359 10.3086 14.5234C9.35938 15.8945 8.58594 17.0195 7.95312 17.8984ZM7.25 9.8125C8.02344 9.8125 8.69141 9.56641 9.25391 9.00391C9.81641 8.44141 10.0625 7.77344 10.0625 7C10.0625 6.22656 9.81641 5.59375 9.25391 5.03125C8.69141 4.46875 8.02344 4.1875 7.25 4.1875C6.47656 4.1875 5.84375 4.46875 5.28125 5.03125C4.71875 5.59375 4.4375 6.22656 4.4375 7C4.4375 7.77344 4.71875 8.44141 5.28125 9.00391C5.84375 9.56641 6.47656 9.8125 7.25 9.8125Z" fill="#F5CC46"/>
</svg>
